<?xml version="1.0" standalone="no"?>
<!DOCTYPE svg PUBLIC "-//W3C//DTD SVG 1.1//EN" "http://www.w3.org/Graphics/SVG/1.1/DTD/svg11.dtd" >
<svg xmlns="http://www.w3.org/2000/svg">
<metadata></metadata>
<defs>
<font id="pixel-noir_skinnyregular" horiz-adv-x="1912" >
<font-face units-per-em="2048" ascent="1638" descent="-410" />
<missing-glyph horiz-adv-x="637" />
<glyph horiz-adv-x="2048" />
<glyph horiz-adv-x="2048" />
<glyph unicode="&#xd;" horiz-adv-x="2048" />
<glyph unicode=" "  horiz-adv-x="637" />
<glyph unicode="&#x09;" horiz-adv-x="637" />
<glyph unicode="&#xa0;" horiz-adv-x="637" />
<glyph unicode="!" horiz-adv-x="424" d="M212 0h213v425h-213v-425zM212 637h213v1700h-213v-1700z" />
<glyph unicode="&#x22;" horiz-adv-x="1274" d="M212 1700h213v212h-213v-212zM212 2125h213v-213h212v425h-425v-212zM850 1700h212v212h-212v-212zM850 2125h212v-213h213v425h-425v-212z" />
<glyph unicode="#" horiz-adv-x="2124" d="M212 425h425v-425h213v425h212v212h-212v850h212v213h-212v637h-213v-637h-425v-213h425v-850h-425v-212zM1062 637h425v-637h213v637h425v213h-425v850h425v212h-425v425h-213v-425h-425v-212h425v-850h-425v-213z" />
<glyph unicode="$" horiz-adv-x="1699" d="M212 425h213v212h-213v-212zM212 1487h213v425h-213v-425zM425 212h425v-424h212v424h425v213h-425v637h425v213h-425v637h425v213h-425v425h-212v-425h-425v-213h425v-425h-425v-212h425v-850h-425v-213zM1487 425h213v637h-213v-637zM1487 1700h213v212h-213v-212z" />
<glyph unicode="%" horiz-adv-x="2124" d="M212 1700h213v425h-213v-425zM425 1487h425v213h-425v-213zM425 2125h425v212h-425v-212zM637 0h213v425h-213v-425zM850 425h212v425h-212v-425zM850 1700h212v425h-212v-425zM1062 850h213v637h-213v-637zM1275 212h212v425h-212v-425zM1275 1487h212v425h-212v-425z M1487 0h425v212h-425v-212zM1487 637h425v213h-425v-213zM1487 1912h213v425h-213v-425zM1912 212h213v425h-213v-425z" />
<glyph unicode="&#x26;" d="M212 425h213v637h-213v-637zM425 212h212v213h-212v-213zM425 1062h425v213h425v212h-638v-212h-212v-213zM425 1487h212v638h-212v-638zM637 0h638v212h-638v-212zM637 2125h638v212h-638v-212zM1062 637h213v213h-213v-213zM1275 212h212v213h-212v-213zM1275 850h212 v-425h213v637h-425v-212zM1275 1912h212v213h-212v-213zM1700 1062h212v213h-212v-213z" />
<glyph unicode="'" horiz-adv-x="637" d="M212 1700h213v212h-213v-212zM212 2125h213v-213h212v425h-425v-212z" />
<glyph unicode="(" horiz-adv-x="849" d="M212 425h213v1487h-213v-1487zM425 212h212v213h-212v-213zM425 1912h212v213h-212v-213zM637 0h213v212h-213v-212zM637 2125h213v212h-213v-212z" />
<glyph unicode=")" horiz-adv-x="849" d="M212 0h213v212h-213v-212zM212 2125h213v212h-213v-212zM425 212h212v213h-212v-213zM425 1912h212v213h-212v-213zM637 425h213v1487h-213v-1487z" />
<glyph unicode="*" horiz-adv-x="1699" d="M212 425h213v212h-213v-212zM212 1062h425v-212h213v-638h212v638h213v212h425v213h-425v212h-213v638h-212v-638h-213v-212h-425v-213zM212 1700h213v212h-213v-212zM425 637h212v213h-212v-213zM425 1487h212v213h-212v-213zM1275 637h212v213h-212v-213zM1275 1487 h212v213h-212v-213zM1487 425h213v212h-213v-212zM1487 1700h213v212h-213v-212z" />
<glyph unicode="+" horiz-adv-x="1274" d="M212 637h425v-425h213v425h425v213h-425v425h-213v-425h-425v-213z" />
<glyph unicode="," horiz-adv-x="637" d="M212 0h213v-212h212v424h-425v-212zM212 -212v-213h213v213h-213z" />
<glyph unicode="-" horiz-adv-x="1274" d="M212 637h1063v213h-1063v-213z" />
<glyph unicode="." horiz-adv-x="424" d="M212 0h213v425h-213v-425z" />
<glyph unicode="/" horiz-adv-x="849" d="M212 0h213v850h-213v-850zM425 850h212v637h-212v-637zM637 1487h213v850h-213v-850z" />
<glyph unicode="0" horiz-adv-x="1699" d="M212 425h213v-213h212v425h-212v1275h-213v-1487zM425 1912h212v213h-212v-213zM637 0h638v212h-638v-212zM637 637h213v213h-213v-213zM637 2125h638v212h-638v-212zM850 850h212v212h-212v-212zM1062 1062h213v213h-213v-213zM1275 212h212v213h-212v-213zM1275 1275 h212v-850h213v1487h-213v-425h-212v-212zM1275 1912h212v213h-212v-213z" />
<glyph unicode="1" horiz-adv-x="1274" d="M212 2125h425v-2125h213v2337h-638v-212z" />
<glyph unicode="2" horiz-adv-x="1487" d="M212 212h213v1063h-213v-1063zM212 2125h1063v212h-1063v-212zM425 0h1275v212h-1275v-212zM425 1275h212v212h-212v-212zM637 1487h638v213h-638v-213zM1275 1700h212v425h-212v-425z" />
<glyph unicode="3" horiz-adv-x="1487" d="M212 212h213v213h-213v-213zM212 2125h1063v-425h212v637h-1275v-212zM425 0h637v212h-637v-212zM637 1487h638v213h-638v-213zM1062 212h213v213h-213v-213zM1275 425h212v1062h-212v-1062z" />
<glyph unicode="4" horiz-adv-x="1699" d="M212 1062h1063v-1062h212v1062h213v213h-213v1062h-212v-1062h-850v212h-213v-425zM425 1487h212v638h-212v-638z" />
<glyph unicode="5" horiz-adv-x="1487" d="M212 212h213v213h-213v-213zM212 1487h850v213h-637v425h1062v212h-1275v-850zM425 0h637v212h-637v-212zM1062 212h213v213h-213v-213zM1062 1275h213v212h-213v-212zM1275 425h212v850h-212v-850z" />
<glyph unicode="6" horiz-adv-x="1699" d="M212 425h213v637h212v213h-212v425h-213v-1275zM425 212h212v213h-212v-213zM425 1700h212v425h-212v-425zM637 0h638v212h-638v-212zM637 1275h638v212h-638v-212zM637 2125h638v212h-638v-212zM1275 212h212v213h-212v-213zM1275 1062h212v213h-212v-213zM1275 1912 h212v213h-212v-213zM1487 425h213v637h-213v-637z" />
<glyph unicode="7" horiz-adv-x="1487" d="M212 2125h1063v-425h212v637h-1275v-212zM637 0h213v850h-213v-850zM850 850h212v637h-212v-637zM1062 1487h213v213h-213v-213z" />
<glyph unicode="8" horiz-adv-x="1699" d="M212 425h213v637h-213v-637zM425 212h212v213h-212v-213zM425 1062h212v213h-212v-213zM425 1487h212v638h-212v-638zM637 0h638v212h-638v-212zM637 1275h638v212h-638v-212zM637 2125h638v212h-638v-212zM1275 212h212v213h-212v-213zM1275 1062h212v213h-212v-213z M1275 1487h212v638h-212v-638zM1487 425h213v637h-213v-637z" />
<glyph unicode="9" horiz-adv-x="1699" d="M212 1275h213v637h-213v-637zM425 212h212v213h-212v-213zM425 1062h212v213h-212v-213zM425 1912h212v213h-212v-213zM637 0h638v212h-638v-212zM637 850h638v212h-638v-212zM637 2125h638v212h-638v-212zM1275 212h212v213h-212v-213zM1275 1062h212v-637h213v1487 h-213v-637h-212v-213zM1275 1912h212v213h-212v-213z" />
<glyph unicode=":" horiz-adv-x="424" d="M212 212h213v425h-213v-425zM212 1062h213v425h-213v-425z" />
<glyph unicode=";" horiz-adv-x="637" d="M212 0v-212h213v212h-213zM212 212h213v-212h212v425h-425v-213zM425 850h212v425h-212v-425z" />
<glyph unicode="&#x3c;" horiz-adv-x="1274" d="M212 850h213v212h-213v-212zM425 637h212v213h-212v-213zM425 1062h212v213h-212v-213zM637 425h213v212h-213v-212zM637 1275h213v212h-213v-212zM850 212h212v213h-212v-213zM850 1487h212v213h-212v-213zM1062 0h213v212h-213v-212zM1062 1700h213v212h-213v-212z" />
<glyph unicode="=" horiz-adv-x="1274" d="M212 425h1063v212h-1063v-212zM212 850h1063v212h-1063v-212z" />
<glyph unicode="&#x3e;" horiz-adv-x="1274" d="M212 0h213v212h-213v-212zM212 1700h213v212h-213v-212zM425 212h212v213h-212v-213zM425 1487h212v213h-212v-213zM637 425h213v212h-213v-212zM637 1275h213v212h-213v-212zM850 637h212v213h-212v-213zM850 1062h212v213h-212v-213zM1062 850h213v212h-213v-212z" />
<glyph unicode="?" horiz-adv-x="1699" d="M212 1912h213v213h-213v-213zM425 0h212v425h-212v-425zM425 637h212v638h638v212h-850v-850zM425 2125h850v212h-850v-212zM1275 1487h212v638h-212v-638z" />
<glyph unicode="@" horiz-adv-x="2549" d="M212 425h213v1062h-213v-1062zM425 212h212v213h-212v-213zM425 1487h212v425h-212v-425zM637 0h425v212h-425v-212zM637 1912h425v213h-425v-213zM850 637h212v850h-212v-850zM1062 0v-212h1275v212h-1275zM1062 425h1275v212h-425v1063h-850v-213h638v-850h-638v-212z M1062 2125h1063v212h-1063v-212zM2125 1912h212v213h-212v-213zM2337 637h213v1275h-213v-1275z" />
<glyph unicode="A" horiz-adv-x="1699" d="M212 1487h213v-1487h212v1487h850v-1487h213v2125h-213v-425h-850v425h-212v-425h-213v-213zM637 2125h850v212h-850v-212z" />
<glyph unicode="B" horiz-adv-x="1699" d="M212 1487h213v-1062h212v1062h638v213h-638v425h638v212h-850v-637h-213v-213zM425 0h850v212h-850v-212zM1275 212h212v213h-212v-213zM1275 1275h212v212h-212v-212zM1275 1700h212v425h-212v-425zM1487 425h213v850h-213v-850z" />
<glyph unicode="C" horiz-adv-x="1699" d="M212 425h213v1487h-213v-1487zM425 212h212v213h-212v-213zM425 1912h212v213h-212v-213zM637 0h850v212h-850v-212zM637 2125h850v212h-850v-212zM1487 212h213v213h-213v-213zM1487 1912h213v213h-213v-213z" />
<glyph unicode="D" horiz-adv-x="1487" d="M212 0h1063v212h-1063v-212zM212 425h213v1700h850v212h-1063v-1912zM1275 212h212v1913h-212v-1913z" />
<glyph unicode="E" horiz-adv-x="1699" d="M212 1487h213v-1487h1275v212h-1063v1275h850v213h-850v425h1063v212h-1275v-637h-213v-213z" />
<glyph unicode="F" horiz-adv-x="1699" d="M212 1487h213v-1487h212v1487h850v213h-850v425h1063v212h-1275v-637h-213v-213z" />
<glyph unicode="G" d="M212 425h213v1487h-213v-1487zM425 212h212v213h-212v-213zM425 1912h212v213h-212v-213zM637 0h850v212h-850v-212zM637 2125h850v212h-850v-212zM1275 1487h212v-1275h213v1275h212v213h-637v-213zM1487 1912h213v213h-213v-213z" />
<glyph unicode="H" horiz-adv-x="1699" d="M212 1487h213v-1487h212v1487h850v-1487h213v2337h-213v-637h-850v637h-212v-637h-213v-213z" />
<glyph unicode="I" horiz-adv-x="1274" d="M212 0h1063v212h-425v1913h425v212h-1063v-212h425v-1913h-425v-212z" />
<glyph unicode="J" horiz-adv-x="1062" d="M212 0h425v212h-425v-212zM637 212h213v213h-213v-213zM850 425h212v1912h-212v-1912z" />
<glyph unicode="K" horiz-adv-x="1699" d="M212 1487h213v-1487h212v1487h638v213h-638v637h-212v-637h-213v-213zM1275 1275h212v212h-212v-212zM1275 1700h212v212h-212v-212zM1487 0h213v1275h-213v-1275zM1487 1912h213v425h-213v-425z" />
<glyph unicode="L" horiz-adv-x="1274" d="M212 0h1063v212h-850v2125h-213v-2337z" />
<glyph unicode="M" d="M212 0h213v2125h212v212h-425v-2337zM637 1912h213v213h-213v-213zM850 1700h212v212h-212v-212zM1062 0h213v1700h-213v-1700zM1275 1700h212v212h-212v-212zM1487 1912h213v-1912h212v2337h-212v-212h-213v-213z" />
<glyph unicode="N" horiz-adv-x="1487" d="M212 0h213v2125h212v212h-425v-2337zM637 1912h213v213h-213v-213zM850 1700h212v212h-212v-212zM1062 1487h213v-1487h212v2337h-212v-637h-213v-213z" />
<glyph unicode="O" horiz-adv-x="1699" d="M212 425h213v1487h-213v-1487zM425 212h212v213h-212v-213zM425 1912h212v213h-212v-213zM637 0h638v212h-638v-212zM637 2125h638v212h-638v-212zM1275 212h212v213h-212v-213zM1275 1912h212v213h-212v-213zM1487 425h213v1487h-213v-1487z" />
<glyph unicode="P" horiz-adv-x="1699" d="M212 637h213v-637h212v637h638v213h-638v1275h638v212h-850v-1487h-213v-213zM1275 850h212v212h-212v-212zM1275 1912h212v213h-212v-213zM1487 1062h213v850h-213v-850z" />
<glyph unicode="Q" horiz-adv-x="1699" d="M212 425h213v1487h-213v-1487zM425 212h212v213h-212v-213zM425 1912h212v213h-212v-213zM637 0h213v-212h212v212h213v212h-638v-212zM637 2125h638v212h-638v-212zM1062 -212v-213h638v213h-638zM1275 212h212v213h-212v-213zM1275 1912h212v213h-212v-213zM1487 425 h213v1487h-213v-1487z" />
<glyph unicode="R" d="M212 1487h213v-1487h212v1487h850v213h-850v425h850v212h-1062v-637h-213v-213zM1487 1275h213v212h-213v-212zM1487 1700h213v425h-213v-425zM1700 0h212v1275h-212v-1275z" />
<glyph unicode="S" horiz-adv-x="1699" d="M212 212h213v213h-213v-213zM212 1700h213v425h-213v-425zM425 0h1062v212h-1062v-212zM425 1487h212v213h-212v-213zM425 2125h1062v212h-1062v-212zM637 1275h425v212h-425v-212zM1062 1062h213v213h-213v-213zM1275 850h212v212h-212v-212zM1487 212h213v638h-213 v-638zM1487 1912h213v213h-213v-213z" />
<glyph unicode="T" horiz-adv-x="1699" d="M212 2125h638v-2125h212v2125h638v212h-1488v-212z" />
<glyph unicode="U" horiz-adv-x="1487" d="M212 212h213v2125h-213v-2125zM425 0h850v212h-850v-212zM1275 212h212v2125h-212v-2125z" />
<glyph unicode="V" horiz-adv-x="1487" d="M212 212h213v2125h-213v-2125zM425 0h425v212h-425v-212zM850 212h212v213h-212v-213zM1062 425h213v212h-213v-212zM1275 637h212v1700h-212v-1700z" />
<glyph unicode="W" d="M212 0h425v212h-212v2125h-213v-2337zM637 212h213v213h-213v-213zM850 425h212v212h-212v-212zM1062 637h213v1275h-213v-1275zM1275 425h212v212h-212v-212zM1487 212h213v-212h212v2337h-212v-1912h-213v-213z" />
<glyph unicode="X" horiz-adv-x="1487" d="M212 0h213v850h-213v-850zM212 1487h213v850h-213v-850zM425 850h212v212h-212v-212zM425 1275h212v212h-212v-212zM637 1062h425v213h-425v-213zM1062 850h213v212h-213v-212zM1062 1275h213v212h-213v-212zM1275 0h212v850h-212v-850zM1275 1487h212v850h-212v-850z " />
<glyph unicode="Y" horiz-adv-x="2124" d="M212 2125h213v212h-213v-212zM425 1912h212v213h-212v-213zM637 1700h213v212h-213v-212zM850 1487h212v213h-212v-213zM1062 0h213v1487h-213v-1487zM1275 1487h212v213h-212v-213zM1487 1700h213v212h-213v-212zM1700 1912h212v213h-212v-213zM1912 2125h213v212h-213 v-212z" />
<glyph unicode="Z" horiz-adv-x="1487" d="M212 0h1275v212h-850v638h-212v-638h-213v-212zM212 2125h850v-425h213v425h212v212h-1275v-212zM637 850h213v425h-213v-425zM850 1275h212v425h-212v-425z" />
<glyph unicode="[" horiz-adv-x="849" d="M212 0h638v212h-425v1913h425v212h-638v-2337z" />
<glyph unicode="\" horiz-adv-x="849" d="M212 1487h213v850h-213v-850zM425 850h212v637h-212v-637zM637 0h213v850h-213v-850z" />
<glyph unicode="]" horiz-adv-x="849" d="M212 0h638v2337h-638v-212h425v-1913h-425v-212z" />
<glyph unicode="^" horiz-adv-x="2124" d="M212 1487h213v213h-213v-213zM425 1700h212v212h-212v-212zM637 1912h213v213h-213v-213zM850 2125h212v212h-212v-212zM1062 2337h213v213h-213v-213zM1275 2125h212v212h-212v-212zM1487 1912h213v213h-213v-213zM1700 1700h212v212h-212v-212zM1912 1487h213v213h-213 v-213z" />
<glyph unicode="_" horiz-adv-x="1487" d="M212 0h1275v212h-1275v-212z" />
<glyph unicode="`" horiz-adv-x="637" d="M212 1912h213v213h212v212h-425v-425zM425 1700h212v212h-212v-212z" />
<glyph unicode="a" horiz-adv-x="1274" d="M212 212h213v213h-213v-213zM425 0h850v850h-213v-213h-637v-212h637v-213h-637v-212zM425 850h637v212h-637v-212z" />
<glyph unicode="b" horiz-adv-x="1274" d="M212 212h213v638h637v212h-637v1275h-213v-2125zM425 0h637v212h-637v-212zM1062 212h213v638h-213v-638z" />
<glyph unicode="c" horiz-adv-x="1274" d="M212 212h213v638h-213v-638zM425 0h637v212h-637v-212zM425 850h637v212h-637v-212zM1062 212h213v213h-213v-213zM1062 637h213v213h-213v-213z" />
<glyph unicode="d" horiz-adv-x="1274" d="M212 212h213v638h-213v-638zM425 0h637v212h-637v-212zM425 850h637v-638h213v2125h-213v-1275h-637v-212z" />
<glyph unicode="e" horiz-adv-x="1274" d="M212 212h213v213h637v212h-637v213h-213v-638zM425 0h850v212h-850v-212zM425 850h637v212h-637v-212zM1062 637h213v213h-213v-213z" />
<glyph unicode="f" horiz-adv-x="849" d="M212 0h213v850h425v212h-425v1063h-213v-2125zM425 2125h425v212h-425v-212z" />
<glyph unicode="g" horiz-adv-x="1274" d="M212 212h213v638h-213v-638zM425 0h637v-637h213v1487h-213v-638h-637v-212zM425 850h637v212h-637v-212zM850 -637v-213h212v213h-212z" />
<glyph unicode="h" horiz-adv-x="1274" d="M212 0h213v850h637v212h-637v1275h-213v-2337zM1062 0h213v850h-213v-850z" />
<glyph unicode="i" horiz-adv-x="424" d="M212 0h213v1062h-213v-1062zM212 1487h213v213h-213v-213z" />
<glyph unicode="j" horiz-adv-x="637" d="M212 -425v-212h213v212h-213zM425 -425h212v1487h-212v-1487zM425 1487h212v213h-212v-213z" />
<glyph unicode="k" horiz-adv-x="1274" d="M212 0h213v850h637v212h-637v1275h-213v-2337zM1062 0h213v850h-213v-850zM1062 1062h213v213h-213v-213z" />
<glyph unicode="l" horiz-adv-x="424" d="M212 0h213v2337h-213v-2337z" />
<glyph unicode="m" horiz-adv-x="1699" d="M212 0h213v850h425v212h-638v-1062zM850 0h212v850h-212v-850zM1062 850h425v212h-425v-212zM1487 0h213v850h-213v-850z" />
<glyph unicode="n" horiz-adv-x="1274" d="M212 0h213v850h637v212h-850v-1062zM1062 0h213v850h-213v-850z" />
<glyph unicode="o" horiz-adv-x="1274" d="M212 212h213v638h-213v-638zM425 0h637v212h-637v-212zM425 850h637v212h-637v-212zM1062 212h213v638h-213v-638z" />
<glyph unicode="p" horiz-adv-x="1274" d="M212 -850h213v850h637v212h-637v638h-213v-1700zM425 850h637v212h-637v-212zM1062 212h213v638h-213v-638z" />
<glyph unicode="q" horiz-adv-x="1274" d="M212 212h213v638h-213v-638zM425 0h637v-850h213v1700h-213v-638h-637v-212zM425 850h637v212h-637v-212z" />
<glyph unicode="r" horiz-adv-x="1274" d="M212 0h213v850h637v212h-850v-1062zM1062 637h213v213h-213v-213z" />
<glyph unicode="s" horiz-adv-x="1274" d="M212 0h850v212h-850v-212zM212 637h213v213h-213v-213zM425 425h637v212h-637v-212zM425 850h850v212h-850v-212zM1062 212h213v213h-213v-213z" />
<glyph unicode="t" horiz-adv-x="849" d="M212 850h213v-850h212v850h213v212h-213v1275h-212v-1275h-213v-212z" />
<glyph unicode="u" horiz-adv-x="1274" d="M212 212h213v850h-213v-850zM425 0h850v1062h-213v-850h-637v-212z" />
<glyph unicode="v" horiz-adv-x="1274" d="M212 637h213v425h-213v-425zM425 212h212v425h-212v-425zM637 0h213v212h-213v-212zM850 212h212v425h-212v-425zM1062 637h213v425h-213v-425z" />
<glyph unicode="w" horiz-adv-x="1699" d="M212 212h213v850h-213v-850zM425 0h425v212h-425v-212zM850 212h212v638h-212v-638zM1062 0h425v212h-425v-212zM1487 212h213v850h-213v-850z" />
<glyph unicode="x" horiz-adv-x="1274" d="M212 0h213v212h-213v-212zM212 850h213v212h-213v-212zM425 212h212v213h-212v-213zM425 637h212v213h-212v-213zM637 425h213v212h-213v-212zM850 212h212v213h-212v-213zM850 637h212v213h-212v-213zM1062 0h213v212h-213v-212zM1062 850h213v212h-213v-212z" />
<glyph unicode="y" horiz-adv-x="1274" d="M212 212h213v850h-213v-850zM425 0h637v-637h213v1699h-213v-850h-637v-212zM850 -637v-213h212v213h-212z" />
<glyph unicode="z" horiz-adv-x="1274" d="M212 0h1063v212h-638v213h-212v-213h-213v-212zM212 850h638v-213h212v213h213v212h-1063v-212zM637 425h213v212h-213v-212z" />
<glyph unicode="{" horiz-adv-x="1274" d="M212 1062h425v213h-425v-213zM637 425h213v637h-213v-637zM637 1275h213v637h-213v-637zM850 0h425v212h-213v213h-212v-425zM850 1912h212v213h213v212h-425v-425z" />
<glyph unicode="|" horiz-adv-x="424" d="M212 0h213v2550h-213v-2550z" />
<glyph unicode="}" horiz-adv-x="1274" d="M212 0h425v425h-212v-213h-213v-212zM212 2125h213v-213h212v425h-425v-212zM637 425h213v637h-213v-637zM637 1275h213v637h-213v-637zM850 1062h425v213h-425v-213z" />
<glyph unicode="~" d="M212 1700h213v425h-213v-425zM425 2125h425v212h-425v-212zM850 1912h212v213h-212v-213zM1062 1700h638v212h-638v-212zM1700 1912h212v425h-212v-425z" />
<glyph unicode="&#xa0;" />
<glyph unicode="&#xa4;" />
<glyph unicode="&#xa6;" />
<glyph unicode="&#xa7;" />
<glyph unicode="&#xa8;" />
<glyph unicode="&#xa9;" />
<glyph unicode="&#xab;" />
<glyph unicode="&#xad;" />
<glyph unicode="&#xae;" />
<glyph unicode="&#xb0;" />
<glyph unicode="&#xb1;" />
<glyph unicode="&#xb4;" />
<glyph unicode="&#xb5;" />
<glyph unicode="&#xb6;" />
<glyph unicode="&#xb7;" />
<glyph unicode="&#xb8;" />
<glyph unicode="&#xbb;" />
<glyph unicode="&#xc1;" />
<glyph unicode="&#xc2;" />
<glyph unicode="&#xc4;" />
<glyph unicode="&#xc7;" />
<glyph unicode="&#xc9;" />
<glyph unicode="&#xcb;" />
<glyph unicode="&#xcd;" />
<glyph unicode="&#xce;" />
<glyph unicode="&#xd3;" />
<glyph unicode="&#xd4;" />
<glyph unicode="&#xd6;" />
<glyph unicode="&#xd7;" />
<glyph unicode="&#xda;" />
<glyph unicode="&#xdc;" />
<glyph unicode="&#xdd;" />
<glyph unicode="&#xdf;" />
<glyph unicode="&#xe1;" />
<glyph unicode="&#xe2;" />
<glyph unicode="&#xe4;" />
<glyph unicode="&#xe7;" />
<glyph unicode="&#xe9;" />
<glyph unicode="&#xeb;" />
<glyph unicode="&#xed;" />
<glyph unicode="&#xee;" />
<glyph unicode="&#xf3;" />
<glyph unicode="&#xf4;" />
<glyph unicode="&#xf6;" />
<glyph unicode="&#xf7;" />
<glyph unicode="&#xfa;" />
<glyph unicode="&#xfc;" />
<glyph unicode="&#xfd;" />
<glyph unicode="&#x2000;" horiz-adv-x="1275" />
<glyph unicode="&#x2001;" horiz-adv-x="2550" />
<glyph unicode="&#x2002;" horiz-adv-x="1275" />
<glyph unicode="&#x2003;" horiz-adv-x="2550" />
<glyph unicode="&#x2004;" horiz-adv-x="850" />
<glyph unicode="&#x2005;" horiz-adv-x="637" />
<glyph unicode="&#x2006;" horiz-adv-x="425" />
<glyph unicode="&#x2007;" horiz-adv-x="425" />
<glyph unicode="&#x2008;" horiz-adv-x="318" />
<glyph unicode="&#x2009;" horiz-adv-x="510" />
<glyph unicode="&#x200a;" horiz-adv-x="141" />
<glyph unicode="&#x2010;" horiz-adv-x="1274" d="M212 637h1063v213h-1063v-213z" />
<glyph unicode="&#x2011;" horiz-adv-x="1274" d="M212 637h1063v213h-1063v-213z" />
<glyph unicode="&#x2012;" horiz-adv-x="1274" d="M212 637h1063v213h-1063v-213z" />
<glyph unicode="&#x2013;" />
<glyph unicode="&#x2014;" />
<glyph unicode="&#x2018;" />
<glyph unicode="&#x2019;" />
<glyph unicode="&#x201a;" />
<glyph unicode="&#x201c;" />
<glyph unicode="&#x201d;" />
<glyph unicode="&#x201e;" />
<glyph unicode="&#x2022;" />
<glyph unicode="&#x2026;" />
<glyph unicode="&#x202f;" horiz-adv-x="510" />
<glyph unicode="&#x2039;" />
<glyph unicode="&#x203a;" />
<glyph unicode="&#x205f;" horiz-adv-x="637" />
<glyph unicode="&#x20ac;" />
<glyph unicode="&#x2122;" />
<glyph unicode="&#x25fc;" horiz-adv-x="1062" d="M0 0v1062h1062v-1062h-1062z" />
</font>
</defs>
</svg>
